{"title":"Kingdom.S01.E07.Animator-Annihilator.480p.HDTV_TTL","uid":11518133,"size":416035007,"categoryP":"video","categoryS":"tv_shows","magnet":"?xt=urn:btih:004841e9fb561cd79b002ec39dc5d92eddf07c1d&amp;dn=Kingdom.S01.E07.Animator-Annihilator.480p.HDTV_TTL&amp;tr=udp%3A%2F%2Ftracker.openbittorrent.com%3A80&amp;tr=udp%3A%2F%2Fopen.demonii.com%3A1337&amp;tr=udp%3A%2F%2Ftracker.coppersurfer.tk%3A6969&amp;tr=udp%3A%2F%2Fexodus.desync.com%3A6969","seeders":2,"leechers":1,"uploader":"thetorrentlord","files":-1,"time":1416460869,"description":"New series from Direct TV.\t\t\t\t\t\t\t\n\n\t\t\t\t\t\t\t\t\t\t\n\n\t\t\t\t\t\t\t\t\t\t\n\n\t\t\t\t\t\tGrab a sample and check it \n\nIf you like it then go for it.\t\t\t\t\t\n\nEnjoy and and please share.\t\t\t\t\t\t\t\n\nTTLTTLTTLTTLTTLTTLTTLTTLTTLTTLTTLTTLTTLTTLTTLTTLTTLTTLTTLTTLTTLTTLTTLTTL\t\n\nKingdom.S01.E07.Animator-Annihilator.480p.HDTV_TTL.mp4\nFormat                           : MPEG-4\nFormat profile                   : Base Media / Version 2\nCodec ID                         : mp42\nFile size                        : 382 MiB\nDuration                         : 46mn 27s\nOverall bit rate mode            : Variable\nOverall bit rate                 : 1 150 Kbps\nEncoded date                     : UTC 2014-11-20 03:12:51\nTagged date                      : UTC 2014-11-20 03:27:08\nWriting application              : HandBrake 0.9.5 2011010300\n\nVideo\nID                               : 1\nFormat                           : AVC\nFormat/Info                      : Advanced Video Codec\nFormat profile                   : &lt;a class=&quot;__cf_email__&quot; href=&quot;/cdn-cgi/l/email-protection&quot; data-cfemail=&quot;286549414668641b0618&quot;&gt;[email&amp;#160;protected]&lt;/a&gt;&lt;script cf-hash='f9e31' type=&quot;text/javascript&quot;&gt;\n/* &lt;![CDATA[ */!function(){try{var t=&quot;currentScript&quot;in document?document.currentScript:function(){for(var t=document.getElementsByTagName(&quot;script&quot;),e=t.length;e--;)if(t[e].getAttribute(&quot;cf-hash&quot;))return t[e]}();if(t&amp;&amp;t.previousSibling){var e,r,n,i,c=t.previousSibling,a=c.getAttribute(&quot;data-cfemail&quot;);if(a){for(e=&quot;&quot;,r=parseInt(a.substr(0,2),16),n=2;a.length-n;n+=2)i=parseInt(a.substr(n,2),16)^r,e+=String.fromCharCode(i);e=document.createTextNode(e),c.parentNode.replaceChild(e,c)}}}catch(u){}}();/* ]]&gt; */&lt;/script&gt;\nFormat settings, CABAC           : Yes\nFormat settings, ReFrames        : 4 frames\nCodec ID                         : avc1\nCodec ID/Info                    : Advanced Video Coding\nDuration                         : 46mn 27s\nBit rate mode                    : Variable\nBit rate                         : 985 Kbps\nWidth                            : 624 pixels\nHeight                           : 352 pixels\nDisplay aspect ratio             : 16:9\nFrame rate mode                  : Variable\nFrame rate                       : 29.970 fps\nMinimum frame rate               : 20.027 fps\nMaximum frame rate               : 35.253 fps\nColor space                      : YUV\nChroma subsampling               : 4:2:0\nBit depth                        : 8 bits\nScan type                        : Progressive\nBits/(Pixel*Frame)               : 0.150\nStream size                      : 327 MiB (86%)\nWriting library                  : x264 core 112\n\n\nAudio\nID                               : 2\nFormat                           : AAC\nFormat/Info                      : Advanced Audio Codec\nFormat profile                   : LC\nCodec ID                         : 40\nDuration                         : 46mn 27s\nBit rate mode                    : Variable\nBit rate                         : 160 Kbps\nMaximum bit rate                 : 221 Kbps\nChannel(s)                       : 2 channels\nChannel positions                : Front: L R\nSampling rate                    : 48.0 KHz\nCompression mode                 : Lossy\nStream size                      : 53.2 MiB (14%)\nLanguage                         : English\nEncoded date                     : UTC 2014-11-20 03:12:51\nTagged date                      : UTC 2014-11-20 03:27:08","torrent":{"xt":"urn:btih:004841e9fb561cd79b002ec39dc5d92eddf07c1d","amp;dn":"Kingdom.S01.E07.Animator-Annihilator.480p.HDTV_TTL","amp;tr":["udp%3A%2F%2Ftracker.openbittorrent.com%3A80","udp%3A%2F%2Fopen.demonii.com%3A1337","udp%3A%2F%2Ftracker.coppersurfer.tk%3A6969","udp%3A%2F%2Fexodus.desync.com%3A6969"],"infoHash":"004841e9fb561cd79b002ec39dc5d92eddf07c1d","infoHashBuffer":{"type":"Buffer","data":[0,72,65,233,251,86,28,215,155,0,46,195,157,197,217,46,221,240,124,29]},"announce":[],"urlList":[]}}